<?xml version="1.0" encoding="utf-8"?>
<!-- Generator: Adobe Illustrator 16.0.0, SVG Export Plug-In . SVG Version: 6.00 Build 0)  -->
<!DOCTYPE svg PUBLIC "-//W3C//DTD SVG 1.0//EN" "http://www.w3.org/TR/2001/REC-SVG-20010904/DTD/svg10.dtd">
<svg version="1.0" id="Capa_1" xmlns="http://www.w3.org/2000/svg" xmlns:xlink="http://www.w3.org/1999/xlink" x="0px" y="0px"
	 width="612px" height="792px" viewBox="0 0 612 792" enable-background="new 0 0 612 792" xml:space="preserve">
<g>
	<path d="M284.54,154.071c-8.278-3.421-17.813-1.51-24.235,4.894L125.831,294.294H22.251C9.916,294.294,0,304.247,0,316.546v160.601
		c0,12.299,9.916,22.251,22.251,22.251H125.34l135.038,135.329c4.257,4.275,9.988,6.532,15.737,6.532
		c2.839,0,5.786-0.546,8.497-1.692c8.352-3.421,13.755-11.554,13.755-20.541V174.63C298.349,165.625,292.891,157.492,284.54,154.071
		z"/>
	<path d="M417.685,396.182c0-44.048-26.181-83.621-66.772-100.833c-11.263-4.712-24.344,0.473-29.111,11.808
		c-4.876,11.316,0.419,24.38,11.718,29.183c24.089,10.189,39.627,33.696,39.627,59.841c0,25.835-15.393,49.234-39.154,59.586
		c-11.299,4.876-16.447,17.976-11.59,29.256c3.657,8.388,11.826,13.373,20.433,13.373c2.947,0,6.004-0.582,8.879-1.856
		C391.777,479.147,417.685,439.739,417.685,396.182z"/>
</g>
</svg>
