<?xml version="1.0" encoding="utf-8"?>
<!-- Generator: Adobe Illustrator 16.0.0, SVG Export Plug-In . SVG Version: 6.00 Build 0)  -->
<!DOCTYPE svg PUBLIC "-//W3C//DTD SVG 1.0//EN" "http://www.w3.org/TR/2001/REC-SVG-20010904/DTD/svg10.dtd">
<svg version="1.0" id="Capa_1" xmlns="http://www.w3.org/2000/svg" xmlns:xlink="http://www.w3.org/1999/xlink" x="0px" y="0px"
	 width="729.5px" height="792px" viewBox="0 0 729.5 792" enable-background="new 0 0 729.5 792" xml:space="preserve">
<g>
	<path d="M284.54,154.071c-8.278-3.421-17.813-1.51-24.235,4.894L125.831,294.294H22.251C9.916,294.294,0,304.247,0,316.546v160.601
		c0,12.299,9.916,22.251,22.251,22.251H125.34l135.038,135.329c4.257,4.275,9.988,6.532,15.737,6.532
		c2.839,0,5.786-0.546,8.497-1.692c8.352-3.421,13.755-11.554,13.755-20.541V174.63C298.349,165.625,292.891,157.492,284.54,154.071
		z"/>
	<path d="M516.116,396.218c0-83.366-49.543-158.454-126.25-191.367c-11.299-4.839-24.417,0.382-29.22,11.699
		c-4.858,11.28,0.363,24.362,11.662,29.202c60.405,25.872,99.322,84.931,99.322,150.466c0,65.245-38.771,124.158-98.831,150.048
		c-11.263,4.876-16.484,17.957-11.626,29.22c3.62,8.424,11.826,13.445,20.505,13.445c2.875,0,5.895-0.582,8.77-1.838
		C466.827,554.181,516.116,479.257,516.116,396.218z"/>
	<path d="M417.685,396.182c0-44.048-26.181-83.621-66.772-100.833c-11.263-4.712-24.344,0.473-29.111,11.808
		c-4.876,11.316,0.419,24.38,11.718,29.183c24.089,10.189,39.627,33.696,39.627,59.841c0,25.835-15.393,49.234-39.154,59.586
		c-11.299,4.876-16.447,17.976-11.59,29.256c3.657,8.388,11.826,13.373,20.433,13.373c2.947,0,6.004-0.582,8.879-1.856
		C391.777,479.147,417.685,439.739,417.685,396.182z"/>
	<path d="M427.674,116.809c-11.299-4.894-24.453,0.346-29.221,11.663c-4.876,11.299,0.346,24.38,11.663,29.202
		c95.593,41.028,157.344,134.656,157.344,238.582c0,103.543-61.515,196.989-156.816,238.09
		c-11.299,4.876-16.521,17.939-11.698,29.22c3.656,8.424,11.826,13.445,20.432,13.445c2.947,0,6.004-0.582,8.879-1.837
		c111.585-48.105,183.726-157.617,183.726-278.937C612,274.535,539.678,164.842,427.674,116.809z"/>
	<path d="M488.536,49.095c-14.073-6.096-30.457,0.43-36.396,14.526c-6.073,14.073,0.431,30.367,14.527,36.372
		c119.063,51.102,195.978,167.719,195.978,297.162c0,128.967-76.619,245.357-195.32,296.55
		c-14.073,6.073-20.578,22.345-14.571,36.395c4.554,10.491,14.73,16.746,25.448,16.746c3.671,0,7.479-0.725,11.059-2.287
		c138.983-59.918,228.838-196.318,228.838-347.427C718.121,245.548,628.041,108.921,488.536,49.095z"/>
</g>
</svg>
