<?xml version="1.0" encoding="iso-8859-1"?>
<!-- Generator: Adobe Illustrator 18.0.0, SVG Export Plug-In . SVG Version: 6.00 Build 0)  -->
<!DOCTYPE svg PUBLIC "-//W3C//DTD SVG 1.1//EN" "http://www.w3.org/Graphics/SVG/1.1/DTD/svg11.dtd">
<svg version="1.1" id="Capa_1" xmlns="http://www.w3.org/2000/svg" xmlns:xlink="http://www.w3.org/1999/xlink" x="0px" y="0px"
	 viewBox="0 0 33.637 30.892" style="enable-background:new 0 0 33.637 30.892;" xml:space="preserve">
<g>
	<path d="M15.639,2.149c-0.455-0.188-0.979-0.083-1.332,0.269L6.916,9.856H1.223C0.545,9.856,0,10.403,0,11.079v8.827
		c0,0.676,0.545,1.223,1.223,1.223h5.666l7.422,7.438c0.234,0.235,0.549,0.359,0.865,0.359c0.156,0,0.318-0.03,0.467-0.093
		c0.459-0.188,0.756-0.635,0.756-1.129V3.279C16.398,2.784,16.098,2.337,15.639,2.149z"/>
	<path d="M28.367,15.458c0-4.582-2.723-8.709-6.939-10.518c-0.621-0.266-1.342,0.021-1.606,0.643
		c-0.267,0.62,0.02,1.339,0.641,1.605c3.32,1.422,5.459,4.668,5.459,8.27c0,3.586-2.131,6.824-5.432,8.247
		c-0.619,0.268-0.906,0.987-0.639,1.606c0.199,0.463,0.65,0.739,1.127,0.739c0.158,0,0.324-0.032,0.482-0.101
		C25.658,24.14,28.367,20.022,28.367,15.458z"/>
	<path d="M22.957,15.456c0-2.421-1.439-4.596-3.67-5.542c-0.619-0.259-1.338,0.026-1.6,0.649c-0.268,0.622,0.023,1.34,0.644,1.604
		c1.324,0.56,2.178,1.852,2.178,3.289c0,1.42-0.846,2.706-2.152,3.275c-0.621,0.268-0.904,0.988-0.637,1.608
		c0.201,0.461,0.65,0.735,1.123,0.735c0.162,0,0.33-0.032,0.488-0.102C21.533,20.016,22.957,17.85,22.957,15.456z"/>
	<path d="M23.506,0.101C22.885-0.168,22.162,0.12,21.9,0.742c-0.268,0.621,0.019,1.34,0.641,1.605
		c5.254,2.255,8.648,7.401,8.648,13.113c0,5.691-3.381,10.827-8.619,13.086c-0.621,0.268-0.908,0.986-0.643,1.606
		c0.201,0.463,0.65,0.739,1.123,0.739c0.162,0,0.33-0.032,0.488-0.101c6.133-2.644,10.098-8.663,10.098-15.331
		C33.637,8.77,29.662,2.741,23.506,0.101z"/>
</g>
<g>
</g>
<g>
</g>
<g>
</g>
<g>
</g>
<g>
</g>
<g>
</g>
<g>
</g>
<g>
</g>
<g>
</g>
<g>
</g>
<g>
</g>
<g>
</g>
<g>
</g>
<g>
</g>
<g>
</g>
</svg>
